Coordinates
version=1
nRows=4
nColumns=124
inDegrees=yes

Units are S.I. units (second, meters, Newtons, ...)
If the header above contains a line with 'inDegrees', this indicates whether rotational values are in degrees (yes) or radians (no).

endheader 
time	pelvis_tilt	pelvis_list	pelvis_rotation	pelvis_tx	pelvis_ty	pelvis_tz	hip_flexion_l	hip_adduction_l	hip_rotation_l	hip_flexion_r	hip_adduction_r	hip_rotation_r	knee_angle_l	knee_angle_r	ankle_angle_l	ankle_angle_r	subtalar_angle_l	subtalar_angle_r	mtp_angle_l	mtp_angle_r	lumbar_extension	lumbar_bending	lumbar_rotation	arm_flex_l	arm_add_l	arm_rot_l	arm_flex_r	arm_add_r	arm_rot_r	elbow_flex_l	elbow_flex_r	glut_med1_l/activation	glut_med2_l/activation	glut_med3_l/activation	glut_min1_l/activation	glut_min2_l/activation	glut_min3_l/activation	semimem_l/activation	semiten_l/activation	bifemlh_l/activation	bifemsh_l/activation	sar_l/activation	add_long_l/activation	add_brev_l/activation	add_mag1_l/activation	add_mag2_l/activation	add_mag3_l/activation	tfl_l/activation	pect_l/activation	grac_l/activation	glut_max1_l/activation	glut_max2_l/activation	glut_max3_l/activation	iliacus_l/activation	psoas_l/activation	quad_fem_l/activation	gem_l/activation	peri_l/activation	rect_fem_l/activation	vas_med_l/activation	vas_int_l/activation	vas_lat_l/activation	med_gas_l/activation	lat_gas_l/activation	soleus_l/activation	tib_post_l/activation	flex_dig_l/activation	flex_hal_l/activation	tib_ant_l/activation	per_brev_l/activation	per_long_l/activation	per_tert_l/activation	ext_dig_l/activation	ext_hal_l/activation	ercspn_l/activation	intobl_l/activation	extobl_l/activation	glut_med1_r/activation	glut_med2_r/activation	glut_med3_r/activation	glut_min1_r/activation	glut_min2_r/activation	glut_min3_r/activation	semimem_r/activation	semiten_r/activation	bifemlh_r/activation	bifemsh_r/activation	sar_r/activation	add_long_r/activation	add_brev_r/activation	add_mag1_r/activation	add_mag2_r/activation	add_mag3_r/activation	tfl_r/activation	pect_r/activation	grac_r/activation	glut_max1_r/activation	glut_max2_r/activation	glut_max3_r/activation	iliacus_r/activation	psoas_r/activation	quad_fem_r/activation	gem_r/activation	peri_r/activation	rect_fem_r/activation	vas_med_r/activation	vas_int_r/activation	vas_lat_r/activation	med_gas_r/activation	lat_gas_r/activation	soleus_r/activation	tib_post_r/activation	flex_dig_r/activation	flex_hal_r/activation	tib_ant_r/activation	per_brev_r/activation	per_long_r/activation	per_tert_r/activation	ext_dig_r/activation	ext_hal_r/activation	ercspn_r/activation	intobl_r/activation	extobl_r/activation	
          0.38638552	         -2.66217339	         -9.58837282	         -7.60077691	          0.29440821	          1.02952582	          0.00768377	         13.09135584	         -8.15692196	          3.98813599	        -15.72012702	          8.81003706	          5.23414249	        -17.40036607	        -16.64936735	         10.22395130	        -17.63464525	        -14.71383279	         -1.87977638	          2.46370764	         20.19962339	          3.18874964	          3.98840432	         -1.00227989	        -24.51970816	        -13.46870553	         19.25751293	         -5.89816181	        -13.46355477	         15.73774929	         14.87455164	         92.20053806	          0.40764574	          0.58264545	          0.39112028	          0.22090305	          0.26949573	          0.13043387	          0.10921254	          0.05000972	          0.13935430	          0.05000099	          0.05000454	          0.05000016	          0.05000059	          0.05000291	          0.05000422	          0.05003571	          0.28676626	          0.05000157	          0.05000111	          0.10669380	          0.24358240	          0.08976628	          0.05000034	          0.05000036	          0.05000073	          0.05005422	          0.27593664	          0.42403277	          0.30833862	          0.33334547	          0.26456602	          0.05000070	          0.05000165	          0.06078865	          0.63758326	          0.33471121	          0.28119625	          0.23458527	          0.05000076	          0.05000035	          0.05000590	          0.06319409	          0.17076228	          0.05000010	          0.05000055	          0.05000018	          0.05000061	          0.05000069	          0.05000246	          0.05000184	          0.05000163	          0.05000460	          0.05003050	          0.23253788	          0.13589930	          0.05000425	          0.05000359	          0.49672647	          0.52215196	          0.05002538	          0.05001995	          0.05002707	          0.05000281	          0.19657437	          0.20740762	          0.05001402	          0.05001511	          0.05001983	          0.05000232	          0.05000194	          0.09241974	          0.05000696	          0.05000159	          0.05000146	          0.14532701	          0.15476525	          0.13909258	          0.10391801	          0.15405839	          0.05690740	          0.35200558	          0.25089449	          0.26024475	          0.05000877	          0.05000058	          0.05000030	          0.05000094	          0.05000147	          0.05000192	          0.08521317	          0.07643759	          0.21953606	
          0.41858431	         -2.67412868	        -11.01243447	         -6.08257869	          0.31520551	          1.03264103	          0.00633266	         11.57359081	         -9.46586019	          4.96486759	        -16.11484230	         10.26412252	          4.01678056	        -16.47212163	        -16.79907752	         10.98749648	        -20.48723161	        -13.97070476	         -0.03290762	          2.58011090	         16.71043930	          3.48812665	          4.19949097	         -0.58536189	        -27.38694909	        -13.54451677	         18.74071324	         -5.08094657	        -13.46419992	         17.06490262	         11.63744266	         99.43832236	          0.43579451	          0.64238100	          0.39735603	          0.28891916	          0.31936811	          0.14002787	          0.07706989	          0.05000348	          0.11252636	          0.05000089	          0.05000555	          0.05000014	          0.05000052	          0.05000241	          0.05000344	          0.05002743	          0.33966775	          0.05000142	          0.05000092	          0.08539210	          0.21874842	          0.05842413	          0.05000034	          0.05000034	          0.05000044	          0.05000327	          0.25444841	          0.47357358	          0.31729087	          0.34210119	          0.27005712	          0.05000063	          0.05000150	          0.12914714	          0.63765611	          0.34188562	          0.29581244	          0.22889510	          0.05000069	          0.05000032	          0.05000540	          0.05001082	          0.15548524	          0.05000012	          0.05000034	          0.05000017	          0.05000053	          0.05000064	          0.05000236	          0.05000160	          0.05000148	          0.05000429	          0.05002550	          0.25987005	          0.18287526	          0.05000171	          0.05000308	          0.41383405	          0.54539407	          0.05002320	          0.05002003	          0.05002839	          0.05000255	          0.20307816	          0.20389572	          0.05001431	          0.05001593	          0.05002082	          0.05000136	          0.05000111	          0.11217435	          0.05000584	          0.05000147	          0.05000102	          0.11767613	          0.12328656	          0.11646227	          0.07683210	          0.10025714	          0.07683214	          0.24685120	          0.16327612	          0.16936107	          0.25545302	          0.05000052	          0.05000019	          0.05000059	          0.24908550	          0.14178771	          0.09298382	          0.13841908	          0.21704240	
          0.45078310	         -2.68098867	        -12.45905386	         -4.43785763	          0.33509774	          1.03516290	          0.00498307	         10.14876188	        -10.89384871	          5.94665398	        -16.13449222	         11.84875634	          2.92860365	        -15.40512086	        -17.46547722	         11.54862183	        -21.90227069	        -13.25529495	          1.95921473	          2.84984842	         11.93309557	          3.79055054	          4.42899552	         -0.18452917	        -29.53069404	        -13.78878198	         17.59359454	         -3.86014383	        -13.46344050	         18.21358794	          8.16410746	        105.26875041	          0.41753617	          0.72390571	          0.41413887	          0.38072152	          0.39365421	          0.15802174	          0.05015513	          0.05000144	          0.07322906	          0.05000070	          0.05000583	          0.05000012	          0.05000045	          0.05000201	          0.05000279	          0.05001050	          0.40371893	          0.05000125	          0.05000074	          0.08061095	          0.19947689	          0.05000771	          0.05000032	          0.05000033	          0.05000031	          0.05000247	          0.24585563	          0.51325816	          0.32773499	          0.34975785	          0.27554150	          0.05000066	          0.05000163	          0.18812023	          0.63135972	          0.34410979	          0.30667276	          0.21297797	          0.05000058	          0.05000028	          0.05000366	          0.05000259	          0.12474427	          0.05000013	          0.05000017	          0.05000015	          0.05000050	          0.05000081	          0.05000335	          0.05000160	          0.05000163	          0.05000499	          0.05086394	          0.24715957	          0.16974594	          0.05729259	          0.05000326	          0.29968132	          0.43069674	          0.05002089	          0.05001954	          0.05002729	          0.05000253	          0.14022482	          0.21140904	          0.05001569	          0.05001795	          0.05002191	          0.05000096	          0.05000082	          0.18574256	          0.05071850	          0.05000285	          0.05000049	          0.07658040	          0.08023148	          0.07579036	          0.05000044	          0.06524443	          0.05000014	          0.16064298	          0.10625545	          0.11021530	          0.36187091	          0.05000129	          0.10514523	          0.09510482	          0.42525752	          0.33040963	          0.10967181	          0.23626742	          0.21024320	
          0.48298190	         -2.68712188	        -13.82810342	         -2.75850012	          0.35365672	          1.03699043	          0.00362874	          8.85435169	        -12.32074463	          6.90077468	        -15.59071011	         13.55472730	          1.92776349	        -14.25768593	        -18.74267465	         12.01933820	        -20.53023719	        -12.65940926	          3.36462995	          3.19546667	          7.54183181	          4.03673193	          4.66682479	          0.16221322	        -31.04038266	        -14.25520334	         15.85126418	         -2.26742267	        -13.46376156	         19.03394601	          5.03664799	        109.71487982	          0.27199825	          0.73353552	          0.41158250	          0.38298225	          0.39448807	          0.15250522	          0.05000072	          0.05000108	          0.05000090	          0.05000070	          0.05000944	          0.05000012	          0.05000043	          0.05000186	          0.05000250	          0.05000670	          0.43839769	          0.05000120	          0.05000068	          0.06754161	          0.18880430	          0.05000639	          0.05000033	          0.05000035	          0.05000031	          0.05000264	          0.22248509	          0.53282746	          0.31706189	          0.33789499	          0.26624595	          0.05000072	          0.05000178	          0.23527961	          0.61330064	          0.33304205	          0.30262315	          0.18204571	          0.05000063	          0.05000031	          0.05000365	          0.05000239	          0.09402431	          0.05000009	          0.05000017	          0.05000014	          0.05000048	          0.05000074	          0.05000302	          0.05000182	          0.05000180	          0.05000499	          0.05001323	          0.16084581	          0.11046677	          0.05000352	          0.05000556	          0.23663335	          0.37117834	          0.05001982	          0.05001890	          0.05002090	          0.05000385	          0.19202553	          0.17754107	          0.05001464	          0.05001580	          0.05001957	          0.05000445	          0.05000815	          0.20934816	          0.05005365	          0.05000182	          0.05000355	          0.06661153	          0.06370123	          0.06767873	          0.05000472	          0.05000556	          0.05130466	          0.12426668	          0.06915467	          0.07172759	          0.37310776	          0.06321851	          0.06842541	          0.06189661	          0.47240651	          0.42831720	          0.12037264	          0.27034342	          0.21500665	
